REM MD5 b8fb29f1308c15ddfb3b88b248f08cd5
FILE "Tomb Raiders (Japan).bin" BINARY
  TRACK 01 MODE2/2352
    INDEX 01 00:00:00
  TRACK 02 AUDIO
    INDEX 00 27:38:17
    INDEX 01 27:40:17
  TRACK 03 AUDIO
    INDEX 00 30:54:60
    INDEX 01 30:56:60
  TRACK 04 AUDIO
    INDEX 00 31:58:58
    INDEX 01 32:00:58
  TRACK 05 AUDIO
    INDEX 00 34:02:22
    INDEX 01 34:04:22
  TRACK 06 AUDIO
    INDEX 00 36:02:33
    INDEX 01 36:04:33
  TRACK 07 AUDIO
    INDEX 00 37:19:32
    INDEX 01 37:21:32
  TRACK 08 AUDIO
    INDEX 00 38:15:23
    INDEX 01 38:17:23
  TRACK 09 AUDIO
    INDEX 00 39:23:42
    INDEX 01 39:25:42
  TRACK 10 AUDIO
    INDEX 00 40:03:48
    INDEX 01 40:05:48
  TRACK 11 AUDIO
    INDEX 00 41:22:69
    INDEX 01 41:24:69
  TRACK 12 AUDIO
    INDEX 00 41:31:31
    INDEX 01 41:33:31
  TRACK 13 AUDIO
    INDEX 00 41:46:30
    INDEX 01 41:48:30
  TRACK 14 AUDIO
    INDEX 00 41:53:33
    INDEX 01 41:55:33
  TRACK 15 AUDIO
    INDEX 00 42:05:38
    INDEX 01 42:07:38
  TRACK 16 AUDIO
    INDEX 00 42:16:41
    INDEX 01 42:18:41
  TRACK 17 AUDIO
    INDEX 00 42:55:29
    INDEX 01 42:57:29
  TRACK 18 AUDIO
    INDEX 00 43:38:18
    INDEX 01 43:40:18
  TRACK 19 AUDIO
    INDEX 00 44:03:42
    INDEX 01 44:05:42
  TRACK 20 AUDIO
    INDEX 00 45:32:12
    INDEX 01 45:34:12
  TRACK 21 AUDIO
    INDEX 00 46:26:29
    INDEX 01 46:28:29
  TRACK 22 AUDIO
    INDEX 00 47:07:46
    INDEX 01 47:09:46
  TRACK 23 AUDIO
    INDEX 00 48:11:03
    INDEX 01 48:13:03
  TRACK 24 AUDIO
    INDEX 00 49:07:05
    INDEX 01 49:09:05
  TRACK 25 AUDIO
    INDEX 00 49:22:33
    INDEX 01 49:24:33
  TRACK 26 AUDIO
    INDEX 00 49:58:26
    INDEX 01 50:00:26
  TRACK 27 AUDIO
    INDEX 00 50:05:26
    INDEX 01 50:07:26
  TRACK 28 AUDIO
    INDEX 00 50:12:26
    INDEX 01 50:14:26
  TRACK 29 AUDIO
    INDEX 00 50:19:26
    INDEX 01 50:21:26
  TRACK 30 AUDIO
    INDEX 00 50:27:30
    INDEX 01 50:29:30
  TRACK 31 AUDIO
    INDEX 00 50:36:10
    INDEX 01 50:38:10
  TRACK 32 AUDIO
    INDEX 00 50:44:14
    INDEX 01 50:46:14
  TRACK 33 AUDIO
    INDEX 00 50:51:14
    INDEX 01 50:53:14
  TRACK 34 AUDIO
    INDEX 00 50:58:14
    INDEX 01 51:00:14
  TRACK 35 AUDIO
    INDEX 00 51:05:14
    INDEX 01 51:07:14
  TRACK 36 AUDIO
    INDEX 00 51:12:14
    INDEX 01 51:14:14
  TRACK 37 AUDIO
    INDEX 00 51:25:27
    INDEX 01 51:27:27
  TRACK 38 AUDIO
    INDEX 00 51:32:28
    INDEX 01 51:34:28
  TRACK 39 AUDIO
    INDEX 00 51:39:29
    INDEX 01 51:41:29
  TRACK 40 AUDIO
    INDEX 00 51:58:63
    INDEX 01 52:00:63
  TRACK 41 AUDIO
    INDEX 00 52:11:22
    INDEX 01 52:13:22
  TRACK 42 AUDIO
    INDEX 00 52:18:22
    INDEX 01 52:20:22
  TRACK 43 AUDIO
    INDEX 00 52:25:22
    INDEX 01 52:27:22
  TRACK 44 AUDIO
    INDEX 00 52:40:33
    INDEX 01 52:42:33
  TRACK 45 AUDIO
    INDEX 00 52:49:12
    INDEX 01 52:51:12
  TRACK 46 AUDIO
    INDEX 00 53:01:51
    INDEX 01 53:03:51
  TRACK 47 AUDIO
    INDEX 00 53:08:51
    INDEX 01 53:10:51
  TRACK 48 AUDIO
    INDEX 00 53:15:51
    INDEX 01 53:17:51
  TRACK 49 AUDIO
    INDEX 00 53:22:51
    INDEX 01 53:24:51
  TRACK 50 AUDIO
    INDEX 00 53:43:31
    INDEX 01 53:45:31
  TRACK 51 AUDIO
    INDEX 00 53:50:31
    INDEX 01 53:52:31
  TRACK 52 AUDIO
    INDEX 00 53:57:32
    INDEX 01 53:59:32
  TRACK 53 AUDIO
    INDEX 00 54:04:32
    INDEX 01 54:06:32
  TRACK 54 AUDIO
    INDEX 00 54:11:63
    INDEX 01 54:13:63
  TRACK 55 AUDIO
    INDEX 00 54:18:63
    INDEX 01 54:20:63
  TRACK 56 AUDIO
    INDEX 00 54:37:74
    INDEX 01 54:39:74
  TRACK 57 AUDIO
    INDEX 00 54:44:74
    INDEX 01 54:46:74
REM LEADOUT 58:01:42
